<?xml version="1.0" standalone="no"?>
<!DOCTYPE svg PUBLIC "-//W3C//DTD SVG 20010904//EN"
 "http://www.w3.org/TR/2001/REC-SVG-20010904/DTD/svg10.dtd">
<svg version="1.0" xmlns="http://www.w3.org/2000/svg"
 width="512.000000pt" height="512.000000pt" viewBox="0 0 512.000000 512.000000"
 preserveAspectRatio="xMidYMid meet">

<g transform="translate(0.000000,512.000000) scale(0.100000,-0.100000)"
fill="#000000" stroke="none">
<path d="M2034 4894 c-17 -8 -36 -25 -43 -37 -6 -12 -53 -150 -104 -307 l-93
-285 -789 -5 c-435 -3 -798 -9 -807 -13 -28 -14 -48 -54 -48 -97 0 -33 6 -48
29 -71 l29 -29 190 0 189 0 7 -67 c3 -38 67 -912 141 -1943 74 -1031 137
-1899 141 -1928 4 -35 14 -62 31 -82 l25 -30 1622 0 c1471 0 1624 1 1644 16
13 9 27 26 32 39 5 12 72 906 150 1986 78 1080 143 1974 146 1987 4 22 6 22
185 22 196 0 225 6 247 55 20 44 14 82 -17 117 l-29 33 -794 3 -794 2 -106
323 -105 322 -524 2 c-455 2 -528 1 -555 -13z m993 -409 c39 -115 72 -213 72
-217 1 -5 -242 -8 -539 -8 -297 0 -540 3 -540 6 0 5 114 362 135 422 4 10 89
12 402 10 l398 -3 72 -210z m1283 -460 c1 -37 -272 -3800 -275 -3813 -6 -19
-2943 -18 -2951 1 -6 16 -283 3820 -278 3827 1 3 790 6 1753 6 l1751 0 0 -21z"/>
<path d="M1534 3591 c-17 -11 -36 -33 -42 -49 -16 -47 169 -2802 191 -2835 21
-32 69 -51 110 -43 37 7 60 27 75 66 14 37 -170 2798 -189 2828 -15 24 -66 52
-96 52 -10 0 -32 -9 -49 -19z"/>
<path d="M2510 3593 c-24 -12 -39 -29 -47 -53 -9 -26 -12 -372 -12 -1408 -1
-1503 -4 -1424 58 -1456 38 -20 64 -20 102 0 62 32 59 -47 59 1451 0 920 -4
1380 -11 1406 -17 63 -87 92 -149 60z"/>
<path d="M3485 3595 c-17 -9 -36 -25 -44 -37 -19 -30 -203 -2791 -189 -2828
22 -59 81 -84 139 -60 63 26 54 -55 155 1452 102 1530 100 1439 35 1472 -37
20 -57 20 -96 1z"/>
</g>
</svg>
