<?xml version="1.0" standalone="no"?>
<!DOCTYPE svg PUBLIC "-//W3C//DTD SVG 20010904//EN"
 "http://www.w3.org/TR/2001/REC-SVG-20010904/DTD/svg10.dtd">
<svg version="1.0" xmlns="http://www.w3.org/2000/svg"
 width="512.000000pt" height="512.000000pt" viewBox="0 0 512.000000 512.000000"
 preserveAspectRatio="xMidYMid meet">

<g transform="translate(0.000000,512.000000) scale(0.100000,-0.100000)"
fill="#000000" stroke="none">
<path d="M206 5058 c-57 -16 -129 -90 -144 -150 -17 -67 -17 -4629 0 -4696 16
-64 86 -134 150 -150 35 -9 620 -12 2351 -12 1997 0 2310 2 2353 15 53 16 108
64 140 125 18 34 19 84 19 1230 l0 1195 -22 40 c-41 76 -105 115 -190 115 -91
-1 -180 -65 -202 -147 -7 -25 -11 -390 -11 -1100 l0 -1063 -2090 0 -2090 0 0
2090 0 2090 1068 0 c1010 0 1069 1 1107 19 158 72 167 295 15 381 l-45 25
-1185 2 c-800 1 -1198 -2 -1224 -9z"/>
<path d="M3645 5054 c-47 -15 -133 -98 -1381 -1347 -941 -942 -1336 -1344
-1349 -1372 -18 -38 -18 -68 -8 -646 10 -569 12 -609 30 -650 24 -53 55 -82
108 -105 35 -14 119 -18 645 -27 585 -10 606 -10 645 8 48 23 2676 2626 2715
2689 30 50 33 133 6 186 -24 46 -1201 1226 -1248 1250 -52 27 -105 32 -163 14z
m495 -909 l425 -425 -1199 -1199 -1199 -1199 -411 5 c-226 3 -414 8 -417 12
-4 3 -11 190 -17 415 l-10 409 1196 1204 c658 662 1199 1203 1202 1203 3 0
196 -191 430 -425z"/>
</g>
</svg>
